<svg xmlns="http://www.w3.org/2000/svg" width="1440" height="641" viewBox="0 0 1440 641">
  <defs>
    <filter id="f" x="-10%" y="-80%" width="120%" height="260%">
      <feDropShadow dx="0" dy="5" stdDeviation="7" flood-color="#2B2B28" flood-opacity="0.09" />
    </filter>
  </defs>
  <path d="M0,146.5 C84.0,159.4 156.0,157.7 240.0,169.8 C324.0,164.9 396.0,169.8 480.0,158.2 C564.0,164.1 636.0,188.5 720.0,184.7 C804.0,178.9 876.0,114.0 960.0,103.7 C1044.0,109.4 1116.0,149.7 1200.0,137.5 C1284.0,135.3 1356.0,135.9 1440.0,146.5 L1440,341.5 C1356.0,351.3 1284.0,354.0 1200.0,351.4 C1116.0,345.8 1044.0,301.0 960.0,309.7 C876.0,318.0 804.0,333.9 720.0,333.1 C636.0,336.4 564.0,328.0 480.0,323.7 C396.0,317.2 324.0,313.5 240.0,321.8 C156.0,314.9 84.0,342.6 0.0,341.5 Z" fill="#7E97A5" opacity="0.3" filter="url(#f)" />
</svg>
