<svg xmlns="http://www.w3.org/2000/svg" width="1440" height="638" viewBox="0 0 1440 638">
  <defs>
    <filter id="f" x="-10%" y="-80%" width="120%" height="260%">
      <feDropShadow dx="0" dy="5" stdDeviation="7" flood-color="#2B2B28" flood-opacity="0.09" />
    </filter>
  </defs>
  <path d="M0,278.0 C84.0,290.9 156.0,258.3 240.0,255.5 C324.0,272.7 396.0,218.7 480.0,232.7 C564.0,227.0 636.0,301.4 720.0,284.7 C804.0,278.2 876.0,257.8 960.0,253.1 C1044.0,247.8 1116.0,278.9 1200.0,279.6 C1284.0,289.4 1356.0,290.3 1440.0,278.0 L1440,488.0 C1356.0,491.7 1284.0,475.3 1200.0,464.0 C1116.0,477.1 1044.0,463.4 960.0,459.7 C876.0,470.1 804.0,466.6 720.0,476.1 C636.0,472.0 564.0,487.6 480.0,481.8 C396.0,493.2 324.0,532.9 240.0,520.7 C156.0,513.9 84.0,486.8 0.0,488.0 Z" fill="#D8C2A0" opacity="0.6" filter="url(#f)" />
</svg>
